<svg xmlns="http://www.w3.org/2000/svg" xmlns:xlink="http://www.w3.org/1999/xlink" width="50" zoomAndPan="magnify" viewBox="0 0 37.5 37.499999" height="50" preserveAspectRatio="xMidYMid meet" version="1.0"><defs><clipPath id="e4ca90e894"><path d="M 9 24 L 27.980469 24 L 27.980469 34.25 L 9 34.25 Z M 9 24 " clip-rule="nonzero"/></clipPath><clipPath id="626fe717e4"><path d="M 10 3 L 27.980469 3 L 27.980469 30 L 10 30 Z M 10 3 " clip-rule="nonzero"/></clipPath></defs><path fill="#100f0d" d="M 18.953125 9.472656 L 15.621094 12.234375 C 15.621094 12.234375 15.621094 12.242188 15.617188 12.25 C 15.617188 12.257812 15.613281 12.261719 15.613281 12.265625 L 15.613281 15.058594 C 15.613281 15.160156 15.652344 15.25 15.726562 15.320312 C 15.800781 15.394531 15.886719 15.433594 15.984375 15.433594 L 18.210938 15.433594 L 18.210938 13.199219 L 19.691406 13.199219 L 19.691406 15.433594 L 21.917969 15.433594 C 22.015625 15.433594 22.105469 15.394531 22.175781 15.320312 C 22.25 15.25 22.289062 15.160156 22.289062 15.058594 L 22.289062 12.265625 C 22.289062 12.25 22.285156 12.242188 22.28125 12.234375 L 18.953125 9.472656 " fill-opacity="1" fill-rule="nonzero"/><path fill="#100f0d" d="M 23.554688 11.605469 L 22.289062 10.542969 L 22.289062 8.171875 C 22.289062 8.117188 22.269531 8.070312 22.234375 8.035156 C 22.199219 8.003906 22.15625 7.984375 22.101562 7.984375 L 20.988281 7.984375 C 20.9375 7.984375 20.890625 8.003906 20.855469 8.035156 C 20.820312 8.070312 20.804688 8.117188 20.804688 8.171875 L 20.804688 9.304688 L 19.390625 8.117188 C 19.269531 8.015625 19.121094 7.964844 18.953125 7.964844 C 18.78125 7.964844 18.632812 8.015625 18.511719 8.117188 L 14.347656 11.605469 C 14.308594 11.636719 14.289062 11.675781 14.28125 11.730469 C 14.28125 11.78125 14.292969 11.828125 14.324219 11.867188 L 14.683594 12.296875 C 14.714844 12.332031 14.753906 12.351562 14.804688 12.359375 C 14.851562 12.363281 14.898438 12.351562 14.945312 12.320312 L 18.953125 8.960938 L 22.960938 12.320312 C 22.988281 12.347656 23.03125 12.359375 23.082031 12.359375 L 23.097656 12.359375 C 23.148438 12.351562 23.1875 12.332031 23.21875 12.296875 L 23.578125 11.867188 C 23.609375 11.828125 23.621094 11.78125 23.621094 11.730469 C 23.613281 11.675781 23.59375 11.636719 23.554688 11.605469 " fill-opacity="1" fill-rule="nonzero"/><g clip-path="url(#e4ca90e894)"><path fill="#100f0d" d="M 22.765625 24.773438 C 22.675781 24.929688 22.585938 25.082031 22.5 25.234375 C 24.914062 25.898438 26.558594 27.222656 26.558594 28.75 C 26.558594 30.949219 23.152344 32.730469 18.953125 32.730469 C 14.75 32.730469 11.339844 30.949219 11.339844 28.75 C 11.339844 27.226562 12.980469 25.902344 15.386719 25.238281 C 15.300781 25.085938 15.210938 24.929688 15.121094 24.777344 C 12.046875 25.570312 9.914062 27.289062 9.914062 29.28125 C 9.914062 32.027344 13.960938 34.25 18.953125 34.25 C 23.941406 34.25 27.988281 32.027344 27.988281 29.28125 C 27.988281 27.285156 25.847656 25.566406 22.765625 24.773438 " fill-opacity="1" fill-rule="nonzero"/></g><g clip-path="url(#626fe717e4)"><path fill="#100f0d" d="M 18.953125 18.316406 C 15.554688 18.316406 12.800781 15.550781 12.800781 12.140625 C 12.800781 8.726562 15.554688 5.960938 18.953125 5.960938 C 22.347656 5.960938 25.097656 8.726562 25.097656 12.140625 C 25.097656 15.550781 22.347656 18.316406 18.953125 18.316406 Z M 27.375 10.339844 C 26.253906 5.324219 21.199219 2.417969 16.304688 3.960938 C 11.144531 5.585938 8.75 11.59375 11.410156 16.34375 C 13.339844 19.78125 15.339844 23.175781 17.308594 26.59375 C 17.84375 27.515625 18.378906 28.441406 18.9375 29.40625 C 19 29.3125 19.03125 29.265625 19.058594 29.214844 C 21.527344 24.941406 24.003906 20.679688 26.453125 16.398438 C 27.53125 14.507812 27.847656 12.472656 27.375 10.339844 " fill-opacity="1" fill-rule="nonzero"/></g><path fill="#100f0d" d="M 20.480469 29.515625 C 20.480469 30.1875 19.792969 30.738281 18.953125 30.738281 C 18.109375 30.738281 17.421875 30.1875 17.421875 29.515625 C 17.421875 29.117188 17.660156 28.765625 18.023438 28.542969 C 18.035156 28.566406 18.050781 28.589844 18.0625 28.613281 L 18.925781 30.097656 L 19.296875 29.515625 C 19.328125 29.46875 19.347656 29.433594 19.371094 29.398438 C 19.535156 29.109375 19.699219 28.824219 19.867188 28.535156 C 20.242188 28.757812 20.480469 29.113281 20.480469 29.515625 " fill-opacity="1" fill-rule="nonzero"/></svg>