<svg xmlns="http://www.w3.org/2000/svg" xmlns:xlink="http://www.w3.org/1999/xlink" width="50" zoomAndPan="magnify" viewBox="0 0 37.5 37.499999" height="50" preserveAspectRatio="xMidYMid meet" version="1.0"><defs><clipPath id="d5725abdac"><path d="M 1.851562 1.851562 L 35.15625 1.851562 L 35.15625 35.15625 L 1.851562 35.15625 Z M 1.851562 1.851562 " clip-rule="nonzero"/></clipPath><clipPath id="3929d795ba"><path d="M 18.503906 1.851562 C 9.304688 1.851562 1.851562 9.304688 1.851562 18.503906 C 1.851562 27.699219 9.304688 35.15625 18.503906 35.15625 C 27.699219 35.15625 35.15625 27.699219 35.15625 18.503906 C 35.15625 9.304688 27.699219 1.851562 18.503906 1.851562 Z M 18.503906 1.851562 " clip-rule="nonzero"/></clipPath><clipPath id="5d2fb8459d"><path d="M 3.019531 3.019531 L 33.988281 3.019531 L 33.988281 33.988281 L 3.019531 33.988281 Z M 3.019531 3.019531 " clip-rule="nonzero"/></clipPath><clipPath id="83dd7f8174"><path d="M 18.503906 3.019531 C 9.953125 3.019531 3.019531 9.953125 3.019531 18.503906 C 3.019531 27.054688 9.953125 33.988281 18.503906 33.988281 C 27.054688 33.988281 33.988281 27.054688 33.988281 18.503906 C 33.988281 9.953125 27.054688 3.019531 18.503906 3.019531 Z M 18.503906 3.019531 " clip-rule="nonzero"/></clipPath><clipPath id="3221b04252"><path d="M 9.296875 9.296875 L 27.800781 9.296875 L 27.800781 27.800781 L 9.296875 27.800781 Z M 9.296875 9.296875 " clip-rule="nonzero"/></clipPath></defs><g clip-path="url(#d5725abdac)"><g clip-path="url(#3929d795ba)"><path fill="#009fe2" d="M 1.851562 1.851562 L 35.15625 1.851562 L 35.15625 35.15625 L 1.851562 35.15625 Z M 1.851562 1.851562 " fill-opacity="1" fill-rule="nonzero"/></g></g><g clip-path="url(#5d2fb8459d)"><g clip-path="url(#83dd7f8174)"><path fill="#ffffff" d="M 3.019531 3.019531 L 33.988281 3.019531 L 33.988281 33.988281 L 3.019531 33.988281 Z M 3.019531 3.019531 " fill-opacity="1" fill-rule="nonzero"/></g></g><g clip-path="url(#3221b04252)"><path fill="#000000" d="M 27.269531 25.367188 C 27.792969 25.894531 27.792969 26.746094 27.269531 27.269531 C 26.746094 27.792969 25.894531 27.792969 25.367188 27.269531 L 18.542969 20.445312 L 11.71875 27.269531 C 11.195312 27.792969 10.34375 27.792969 9.816406 27.269531 C 9.292969 26.746094 9.292969 25.894531 9.816406 25.367188 L 16.640625 18.542969 L 9.816406 11.71875 C 9.292969 11.195312 9.292969 10.34375 9.816406 9.816406 C 10.34375 9.292969 11.195312 9.292969 11.71875 9.816406 L 18.542969 16.640625 L 25.367188 9.816406 C 25.894531 9.292969 26.746094 9.292969 27.269531 9.816406 C 27.792969 10.34375 27.792969 11.195312 27.269531 11.71875 L 20.445312 18.542969 Z M 27.269531 25.367188 " fill-opacity="1" fill-rule="nonzero"/></g></svg>