<svg xmlns="http://www.w3.org/2000/svg" xmlns:xlink="http://www.w3.org/1999/xlink" width="50" zoomAndPan="magnify" viewBox="0 0 37.5 37.499999" height="50" preserveAspectRatio="xMidYMid meet" version="1.0"><defs><clipPath id="e19eadc318"><path d="M 3.277344 18 L 33.621094 18 L 33.621094 33.472656 L 3.277344 33.472656 Z M 3.277344 18 " clip-rule="nonzero"/></clipPath><clipPath id="c76e9af01c"><path d="M 31 16 L 33.621094 16 L 33.621094 18 L 31 18 Z M 31 16 " clip-rule="nonzero"/></clipPath><clipPath id="61471d6662"><path d="M 15 3.867188 L 22 3.867188 L 22 7 L 15 7 Z M 15 3.867188 " clip-rule="nonzero"/></clipPath><clipPath id="64a810d9b8"><path d="M 3.277344 16 L 6 16 L 6 18 L 3.277344 18 Z M 3.277344 16 " clip-rule="nonzero"/></clipPath></defs><path fill="#1b1918" d="M 32.304688 18.558594 L 31.160156 18.558594 L 31.160156 19.023438 Z M 32.304688 18.558594 " fill-opacity="1" fill-rule="nonzero"/><path fill="#1b1918" d="M 5.738281 18.558594 L 4.59375 18.558594 L 4.863281 18.667969 L 5.738281 19.023438 L 5.738281 18.558594 " fill-opacity="1" fill-rule="nonzero"/><g clip-path="url(#e19eadc318)"><path fill="#1b1918" d="M 18.332031 24.816406 L 5.929688 19.777344 L 3.300781 18.707031 L 3.300781 32.277344 C 3.300781 32.9375 3.828125 33.472656 4.476562 33.472656 L 32.417969 33.472656 C 33.070312 33.472656 33.597656 32.9375 33.597656 32.277344 L 33.597656 18.707031 L 18.5625 24.816406 C 18.488281 24.847656 18.40625 24.847656 18.332031 24.816406 " fill-opacity="1" fill-rule="nonzero"/></g><g clip-path="url(#c76e9af01c)"><path fill="#1b1918" d="M 31.160156 16 L 31.160156 17.929688 L 33.140625 17.929688 Z M 31.160156 16 " fill-opacity="1" fill-rule="nonzero"/></g><g clip-path="url(#61471d6662)"><path fill="#1b1918" d="M 19.101562 4.226562 C 18.734375 3.867188 18.160156 3.867188 17.796875 4.226562 L 15.550781 6.417969 L 21.34375 6.417969 L 19.101562 4.226562 " fill-opacity="1" fill-rule="nonzero"/></g><g clip-path="url(#64a810d9b8)"><path fill="#1b1918" d="M 3.757812 17.929688 L 5.738281 17.929688 L 5.738281 16 Z M 3.757812 17.929688 " fill-opacity="1" fill-rule="nonzero"/></g><path fill="#1b1918" d="M 18.617188 13.453125 C 17.78125 13.453125 17.285156 14.6875 17.285156 15.882812 C 17.285156 16.890625 17.753906 16.890625 17.910156 16.890625 C 18.507812 16.890625 18.980469 16.222656 19.179688 15.109375 C 19.34375 14.175781 19.222656 13.789062 19.089844 13.628906 C 18.992188 13.511719 18.835938 13.453125 18.617188 13.453125 " fill-opacity="1" fill-rule="nonzero"/><path fill="#1b1918" d="M 18.871094 8.527344 C 22.457031 8.527344 25.0625 10.875 25.0625 14.105469 C 25.0625 16.914062 23.453125 18.804688 21.054688 18.804688 C 20.261719 18.804688 19.667969 18.523438 19.371094 18.035156 C 18.847656 18.566406 18.230469 18.804688 17.398438 18.804688 C 15.925781 18.804688 14.976562 17.664062 14.976562 15.902344 C 14.976562 13.46875 16.472656 11.5625 18.378906 11.5625 C 19.089844 11.5625 19.542969 11.785156 19.832031 12.0625 L 19.859375 11.957031 C 19.890625 11.8125 20.015625 11.714844 20.160156 11.714844 L 21.722656 11.714844 C 21.816406 11.714844 21.902344 11.753906 21.960938 11.828125 C 22.019531 11.902344 22.042969 11.996094 22.027344 12.089844 L 21.238281 16.003906 C 21.140625 16.566406 21.21875 16.738281 21.257812 16.785156 C 21.292969 16.828125 21.375 16.851562 21.5 16.851562 C 22.378906 16.851562 22.945312 15.78125 22.945312 14.128906 C 22.945312 11.902344 21.3125 10.464844 18.785156 10.464844 C 15.90625 10.464844 14.042969 12.457031 14.042969 15.539062 C 14.042969 18.242188 15.785156 19.988281 18.476562 19.988281 C 20.234375 19.988281 21.1875 19.605469 21.820312 19.269531 C 21.902344 19.226562 22 19.226562 22.085938 19.261719 C 22.171875 19.300781 22.234375 19.375 22.257812 19.464844 L 22.582031 20.632812 C 22.617188 20.769531 22.5625 20.917969 22.441406 20.988281 C 21.304688 21.675781 19.992188 21.992188 18.308594 21.992188 C 14.496094 21.992188 11.835938 19.316406 11.835938 15.484375 C 11.835938 11.453125 14.796875 8.527344 18.871094 8.527344 Z M 18.449219 24.1875 L 30.542969 19.273438 L 30.542969 8.238281 C 30.542969 7.578125 30.015625 7.042969 29.367188 7.042969 L 7.53125 7.042969 C 6.882812 7.042969 6.355469 7.578125 6.355469 8.238281 L 6.355469 19.273438 L 18.449219 24.1875 " fill-opacity="1" fill-rule="nonzero"/></svg>