<svg xmlns="http://www.w3.org/2000/svg" xmlns:xlink="http://www.w3.org/1999/xlink" width="50" zoomAndPan="magnify" viewBox="0 0 37.5 37.499999" height="50" preserveAspectRatio="xMidYMid meet" version="1.0"><defs><clipPath id="02df4c6c51"><path d="M 0 0 L 37.007812 0 L 37.007812 37.007812 L 0 37.007812 Z M 0 0 " clip-rule="nonzero"/></clipPath></defs><g clip-path="url(#02df4c6c51)"><path fill="#ffffff" d="M 0 0 L 37.007812 0 L 37.007812 37.007812 L 0 37.007812 Z M 0 0 " fill-opacity="1" fill-rule="nonzero"/></g><path stroke-linecap="butt" transform="matrix(1.121411, 0, 0, 1.121411, 0.0000005, 0)" fill-opacity="1" fill="#ffffff" fill-rule="nonzero" stroke-linejoin="miter" d="M 1.999433 2.501033 L 9.000933 2.501033 M 10.00065 2.501033 L 11.000367 2.501033 M 14.999234 2.501033 L 15.998951 2.501033 M 16.998667 2.501033 L 17.998384 2.501033 M 20.001301 2.501033 L 23.000451 2.501033 M 24.000168 2.501033 L 31.001668 2.501033 M 1.999433 3.50075 L 2.99915 3.50075 M 8.001217 3.50075 L 9.000933 3.50075 M 10.00065 3.50075 L 11.000367 3.50075 M 13.999517 3.50075 L 15.998951 3.50075 M 17.998384 3.50075 L 21.001018 3.50075 M 22.000734 3.50075 L 23.000451 3.50075 M 24.000168 3.50075 L 24.999885 3.50075 M 29.998468 3.50075 L 31.001668 3.50075 M 1.999433 4.500467 L 2.99915 4.500467 M 3.998866 4.500467 L 7.0015 4.500467 M 8.001217 4.500467 L 9.000933 4.500467 M 12.000084 4.500467 L 12.9998 4.500467 M 13.999517 4.500467 L 14.999234 4.500467 M 16.998667 4.500467 L 19.001584 4.500467 M 22.000734 4.500467 L 23.000451 4.500467 M 24.000168 4.500467 L 24.999885 4.500467 M 25.999601 4.500467 L 28.998751 4.500467 M 29.998468 4.500467 L 31.001668 4.500467 M 1.999433 5.500184 L 2.99915 5.500184 M 3.998866 5.500184 L 7.0015 5.500184 M 8.001217 5.500184 L 9.000933 5.500184 M 10.00065 5.500184 L 13.999517 5.500184 M 15.998951 5.500184 L 16.998667 5.500184 M 19.001584 5.500184 L 20.001301 5.500184 M 21.001018 5.500184 L 22.000734 5.500184 M 24.000168 5.500184 L 24.999885 5.500184 M 25.999601 5.500184 L 28.998751 5.500184 M 29.998468 5.500184 L 31.001668 5.500184 M 1.999433 6.4999 L 2.99915 6.4999 M 3.998866 6.4999 L 7.0015 6.4999 M 8.001217 6.4999 L 9.000933 6.4999 M 11.000367 6.4999 L 14.999234 6.4999 M 15.998951 6.4999 L 20.001301 6.4999 M 21.001018 6.4999 L 22.000734 6.4999 M 24.000168 6.4999 L 24.999885 6.4999 M 25.999601 6.4999 L 28.998751 6.4999 M 29.998468 6.4999 L 31.001668 6.4999 M 1.999433 7.499617 L 2.99915 7.499617 M 8.001217 7.499617 L 9.000933 7.499617 M 11.000367 7.499617 L 12.9998 7.499617 M 13.999517 7.499617 L 15.998951 7.499617 M 19.001584 7.499617 L 20.001301 7.499617 M 21.001018 7.499617 L 23.000451 7.499617 M 24.000168 7.499617 L 24.999885 7.499617 M 29.998468 7.499617 L 31.001668 7.499617 M 1.999433 8.499334 L 9.000933 8.499334 M 10.00065 8.499334 L 11.000367 8.499334 M 12.000084 8.499334 L 12.9998 8.499334 M 13.999517 8.499334 L 14.999234 8.499334 M 15.998951 8.499334 L 16.998667 8.499334 M 17.998384 8.499334 L 19.001584 8.499334 M 20.001301 8.499334 L 21.001018 8.499334 M 22.000734 8.499334 L 23.000451 8.499334 M 24.000168 8.499334 L 31.001668 8.499334 M 10.00065 9.499051 L 11.000367 9.499051 M 12.9998 9.499051 L 13.999517 9.499051 M 17.998384 9.499051 L 21.001018 9.499051 M 22.000734 9.499051 L 23.000451 9.499051 M 1.999433 10.498767 L 2.99915 10.498767 M 3.998866 10.498767 L 5.9983 10.498767 M 7.0015 10.498767 L 10.00065 10.498767 M 12.000084 10.498767 L 12.9998 10.498767 M 14.999234 10.498767 L 15.998951 10.498767 M 19.001584 10.498767 L 22.000734 10.498767 M 24.000168 10.498767 L 24.999885 10.498767 M 26.999318 10.498767 L 27.999035 10.498767 M 28.998751 10.498767 L 31.001668 10.498767 M 1.999433 11.498484 L 4.998583 11.498484 M 5.9983 11.498484 L 7.0015 11.498484 M 9.000933 11.498484 L 11.000367 11.498484 M 12.000084 11.498484 L 12.9998 11.498484 M 13.999517 11.498484 L 16.998667 11.498484 M 17.998384 11.498484 L 31.001668 11.498484 M 2.99915 12.501684 L 5.9983 12.501684 M 7.0015 12.501684 L 10.00065 12.501684 M 11.000367 12.501684 L 12.000084 12.501684 M 12.9998 12.501684 L 15.998951 12.501684 M 19.001584 12.501684 L 20.001301 12.501684 M 22.000734 12.501684 L 23.000451 12.501684 M 24.999885 12.501684 L 25.999601 12.501684 M 27.999035 12.501684 L 29.998468 12.501684 M 1.999433 13.501401 L 2.99915 13.501401 M 3.998866 13.501401 L 7.0015 13.501401 M 9.000933 13.501401 L 12.000084 13.501401 M 13.999517 13.501401 L 14.999234 13.501401 M 16.998667 13.501401 L 17.998384 13.501401 M 22.000734 13.501401 L 24.000168 13.501401 M 28.998751 13.501401 L 31.001668 13.501401 M 3.998866 14.501118 L 5.9983 14.501118 M 7.0015 14.501118 L 9.000933 14.501118 M 10.00065 14.501118 L 11.000367 14.501118 M 12.000084 14.501118 L 12.9998 14.501118 M 15.998951 14.501118 L 16.998667 14.501118 M 19.001584 14.501118 L 20.001301 14.501118 M 21.001018 14.501118 L 22.000734 14.501118 M 25.999601 14.501118 L 31.001668 14.501118 M 1.999433 15.500834 L 2.99915 15.500834 M 3.998866 15.500834 L 7.0015 15.500834 M 10.00065 15.500834 L 12.9998 15.500834 M 15.998951 15.500834 L 17.998384 15.500834 M 19.001584 15.500834 L 20.001301 15.500834 M 21.001018 15.500834 L 22.000734 15.500834 M 24.000168 15.500834 L 24.999885 15.500834 M 26.999318 15.500834 L 28.998751 15.500834 M 29.998468 15.500834 L 31.001668 15.500834 M 1.999433 16.500551 L 2.99915 16.500551 M 3.998866 16.500551 L 5.9983 16.500551 M 8.001217 16.500551 L 9.000933 16.500551 M 10.00065 16.500551 L 12.9998 16.500551 M 14.999234 16.500551 L 15.998951 16.500551 M 21.001018 16.500551 L 24.000168 16.500551 M 24.999885 16.500551 L 27.999035 16.500551 M 28.998751 16.500551 L 31.001668 16.500551 M 2.99915 17.500268 L 3.998866 17.500268 M 4.998583 17.500268 L 5.9983 17.500268 M 7.0015 17.500268 L 8.001217 17.500268 M 10.00065 17.500268 L 12.9998 17.500268 M 13.999517 17.500268 L 14.999234 17.500268 M 15.998951 17.500268 L 16.998667 17.500268 M 17.998384 17.500268 L 19.001584 17.500268 M 24.000168 17.500268 L 25.999601 17.500268 M 26.999318 17.500268 L 27.999035 17.500268 M 1.999433 18.499985 L 5.9983 18.499985 M 7.0015 18.499985 L 11.000367 18.499985 M 12.000084 18.499985 L 12.9998 18.499985 M 15.998951 18.499985 L 17.998384 18.499985 M 20.001301 18.499985 L 21.001018 18.499985 M 22.000734 18.499985 L 24.000168 18.499985 M 24.999885 18.499985 L 26.999318 18.499985 M 2.99915 19.499701 L 3.998866 19.499701 M 9.000933 19.499701 L 11.000367 19.499701 M 12.9998 19.499701 L 13.999517 19.499701 M 15.998951 19.499701 L 17.998384 19.499701 M 20.001301 19.499701 L 21.001018 19.499701 M 22.000734 19.499701 L 24.000168 19.499701 M 24.999885 19.499701 L 25.999601 19.499701 M 27.999035 19.499701 L 28.998751 19.499701 M 1.999433 20.499418 L 2.99915 20.499418 M 4.998583 20.499418 L 19.001584 20.499418 M 20.001301 20.499418 L 21.001018 20.499418 M 22.000734 20.499418 L 24.000168 20.499418 M 26.999318 20.499418 L 28.998751 20.499418 M 3.998866 21.499135 L 5.9983 21.499135 M 7.0015 21.499135 L 8.001217 21.499135 M 10.00065 21.499135 L 17.998384 21.499135 M 19.001584 21.499135 L 20.001301 21.499135 M 21.001018 21.499135 L 22.000734 21.499135 M 24.000168 21.499135 L 24.999885 21.499135 M 27.999035 21.499135 L 29.998468 21.499135 M 2.99915 22.498851 L 3.998866 22.498851 M 8.001217 22.498851 L 11.000367 22.498851 M 14.999234 22.498851 L 16.998667 22.498851 M 17.998384 22.498851 L 26.999318 22.498851 M 27.999035 22.498851 L 29.998468 22.498851 M 10.00065 23.498568 L 11.000367 23.498568 M 12.9998 23.498568 L 13.999517 23.498568 M 17.998384 23.498568 L 21.001018 23.498568 M 22.000734 23.498568 L 23.000451 23.498568 M 25.999601 23.498568 L 26.999318 23.498568 M 27.999035 23.498568 L 31.001668 23.498568 M 1.999433 24.498285 L 9.000933 24.498285 M 10.00065 24.498285 L 11.000367 24.498285 M 12.000084 24.498285 L 12.9998 24.498285 M 13.999517 24.498285 L 14.999234 24.498285 M 15.998951 24.498285 L 16.998667 24.498285 M 19.001584 24.498285 L 23.000451 24.498285 M 24.000168 24.498285 L 24.999885 24.498285 M 25.999601 24.498285 L 26.999318 24.498285 M 28.998751 24.498285 L 29.998468 24.498285 M 1.999433 25.501485 L 2.99915 25.501485 M 8.001217 25.501485 L 9.000933 25.501485 M 10.00065 25.501485 L 12.9998 25.501485 M 13.999517 25.501485 L 17.998384 25.501485 M 20.001301 25.501485 L 21.001018 25.501485 M 22.000734 25.501485 L 23.000451 25.501485 M 25.999601 25.501485 L 26.999318 25.501485 M 29.998468 25.501485 L 31.001668 25.501485 M 1.999433 26.501202 L 2.99915 26.501202 M 3.998866 26.501202 L 7.0015 26.501202 M 8.001217 26.501202 L 9.000933 26.501202 M 11.000367 26.501202 L 12.000084 26.501202 M 12.9998 26.501202 L 14.999234 26.501202 M 19.001584 26.501202 L 20.001301 26.501202 M 22.000734 26.501202 L 26.999318 26.501202 M 27.999035 26.501202 L 28.998751 26.501202 M 1.999433 27.500918 L 2.99915 27.500918 M 3.998866 27.500918 L 7.0015 27.500918 M 8.001217 27.500918 L 9.000933 27.500918 M 10.00065 27.500918 L 12.9998 27.500918 M 13.999517 27.500918 L 15.998951 27.500918 M 16.998667 27.500918 L 17.998384 27.500918 M 19.001584 27.500918 L 20.001301 27.500918 M 21.001018 27.500918 L 24.000168 27.500918 M 24.999885 27.500918 L 26.999318 27.500918 M 29.998468 27.500918 L 31.001668 27.500918 M 1.999433 28.500635 L 2.99915 28.500635 M 3.998866 28.500635 L 7.0015 28.500635 M 8.001217 28.500635 L 9.000933 28.500635 M 10.00065 28.500635 L 11.000367 28.500635 M 12.000084 28.500635 L 12.9998 28.500635 M 15.998951 28.500635 L 16.998667 28.500635 M 17.998384 28.500635 L 19.001584 28.500635 M 21.001018 28.500635 L 24.000168 28.500635 M 24.999885 28.500635 L 25.999601 28.500635 M 29.998468 28.500635 L 31.001668 28.500635 M 1.999433 29.500352 L 2.99915 29.500352 M 8.001217 29.500352 L 9.000933 29.500352 M 11.000367 29.500352 L 12.9998 29.500352 M 14.999234 29.500352 L 16.998667 29.500352 M 17.998384 29.500352 L 19.001584 29.500352 M 22.000734 29.500352 L 24.000168 29.500352 M 26.999318 29.500352 L 27.999035 29.500352 M 28.998751 29.500352 L 29.998468 29.500352 M 1.999433 30.500069 L 9.000933 30.500069 M 10.00065 30.500069 L 12.000084 30.500069 M 12.9998 30.500069 L 17.998384 30.500069 M 20.001301 30.500069 L 23.000451 30.500069 M 24.000168 30.500069 L 24.999885 30.500069 M 25.999601 30.500069 L 26.999318 30.500069 M 28.998751 30.500069 L 29.998468 30.500069 " stroke="#009fe2" stroke-width="1" stroke-opacity="1" stroke-miterlimit="4"/></svg>