<svg xmlns="http://www.w3.org/2000/svg" xmlns:xlink="http://www.w3.org/1999/xlink" width="50" zoomAndPan="magnify" viewBox="0 0 37.5 37.499999" height="50" preserveAspectRatio="xMidYMid meet" version="1.0"><defs><clipPath id="f3bbf6b5f2"><path d="M 1.851562 1.851562 L 35.15625 1.851562 L 35.15625 35.15625 L 1.851562 35.15625 Z M 1.851562 1.851562 " clip-rule="nonzero"/></clipPath><clipPath id="567d8465a1"><path d="M 18.503906 1.851562 C 9.304688 1.851562 1.851562 9.304688 1.851562 18.503906 C 1.851562 27.699219 9.304688 35.15625 18.503906 35.15625 C 27.699219 35.15625 35.15625 27.699219 35.15625 18.503906 C 35.15625 9.304688 27.699219 1.851562 18.503906 1.851562 Z M 18.503906 1.851562 " clip-rule="nonzero"/></clipPath><clipPath id="6f766200e6"><path d="M 3.019531 3.019531 L 33.988281 3.019531 L 33.988281 33.988281 L 3.019531 33.988281 Z M 3.019531 3.019531 " clip-rule="nonzero"/></clipPath><clipPath id="0441158b35"><path d="M 18.503906 3.019531 C 9.953125 3.019531 3.019531 9.953125 3.019531 18.503906 C 3.019531 27.054688 9.953125 33.988281 18.503906 33.988281 C 27.054688 33.988281 33.988281 27.054688 33.988281 18.503906 C 33.988281 9.953125 27.054688 3.019531 18.503906 3.019531 Z M 18.503906 3.019531 " clip-rule="nonzero"/></clipPath><clipPath id="f0239f9067"><path d="M 5.757812 15.316406 L 13 15.316406 L 13 21.976562 L 5.757812 21.976562 Z M 5.757812 15.316406 " clip-rule="nonzero"/></clipPath><clipPath id="d18ea74216"><path d="M 15 15.316406 L 22 15.316406 L 22 21.976562 L 15 21.976562 Z M 15 15.316406 " clip-rule="nonzero"/></clipPath><clipPath id="c148e7d373"><path d="M 24 15.316406 L 30.921875 15.316406 L 30.921875 21.976562 L 24 21.976562 Z M 24 15.316406 " clip-rule="nonzero"/></clipPath></defs><g clip-path="url(#f3bbf6b5f2)"><g clip-path="url(#567d8465a1)"><path fill="#009fe2" d="M 1.851562 1.851562 L 35.15625 1.851562 L 35.15625 35.15625 L 1.851562 35.15625 Z M 1.851562 1.851562 " fill-opacity="1" fill-rule="nonzero"/></g></g><g clip-path="url(#6f766200e6)"><g clip-path="url(#0441158b35)"><path fill="#ffffff" d="M 3.019531 3.019531 L 33.988281 3.019531 L 33.988281 33.988281 L 3.019531 33.988281 Z M 3.019531 3.019531 " fill-opacity="1" fill-rule="nonzero"/></g></g><g clip-path="url(#f0239f9067)"><path fill="#009fe2" d="M 12.128906 18.503906 C 12.128906 18.925781 12.050781 19.332031 11.886719 19.722656 C 11.726562 20.113281 11.496094 20.457031 11.199219 20.757812 C 10.898438 21.054688 10.554688 21.285156 10.164062 21.445312 C 9.773438 21.609375 9.367188 21.6875 8.945312 21.6875 C 8.523438 21.6875 8.117188 21.609375 7.726562 21.445312 C 7.335938 21.285156 6.992188 21.054688 6.691406 20.757812 C 6.394531 20.457031 6.164062 20.113281 6 19.722656 C 5.839844 19.332031 5.757812 18.925781 5.757812 18.503906 C 5.757812 18.082031 5.839844 17.675781 6 17.285156 C 6.164062 16.894531 6.394531 16.550781 6.691406 16.25 C 6.992188 15.953125 7.335938 15.722656 7.726562 15.558594 C 8.117188 15.398438 8.523438 15.316406 8.945312 15.316406 C 9.367188 15.316406 9.773438 15.398438 10.164062 15.558594 C 10.554688 15.722656 10.898438 15.953125 11.199219 16.25 C 11.496094 16.550781 11.726562 16.894531 11.886719 17.285156 C 12.050781 17.675781 12.128906 18.082031 12.128906 18.503906 Z M 12.128906 18.503906 " fill-opacity="1" fill-rule="nonzero"/></g><g clip-path="url(#d18ea74216)"><path fill="#009fe2" d="M 21.6875 18.503906 C 21.6875 18.925781 21.609375 19.332031 21.445312 19.722656 C 21.285156 20.113281 21.054688 20.457031 20.753906 20.757812 C 20.457031 21.054688 20.113281 21.285156 19.722656 21.445312 C 19.332031 21.609375 18.925781 21.6875 18.503906 21.6875 C 18.078125 21.6875 17.671875 21.609375 17.285156 21.445312 C 16.894531 21.285156 16.546875 21.054688 16.25 20.757812 C 15.949219 20.457031 15.722656 20.113281 15.558594 19.722656 C 15.398438 19.332031 15.316406 18.925781 15.316406 18.503906 C 15.316406 18.082031 15.398438 17.675781 15.558594 17.285156 C 15.722656 16.894531 15.949219 16.550781 16.25 16.25 C 16.546875 15.953125 16.894531 15.722656 17.285156 15.558594 C 17.671875 15.398438 18.078125 15.316406 18.503906 15.316406 C 18.925781 15.316406 19.332031 15.398438 19.722656 15.558594 C 20.113281 15.722656 20.457031 15.953125 20.753906 16.25 C 21.054688 16.550781 21.285156 16.894531 21.445312 17.285156 C 21.609375 17.675781 21.6875 18.082031 21.6875 18.503906 Z M 21.6875 18.503906 " fill-opacity="1" fill-rule="nonzero"/></g><g clip-path="url(#c148e7d373)"><path fill="#009fe2" d="M 31.246094 18.503906 C 31.246094 18.925781 31.164062 19.332031 31.003906 19.722656 C 30.84375 20.113281 30.613281 20.457031 30.3125 20.757812 C 30.015625 21.054688 29.671875 21.285156 29.28125 21.445312 C 28.890625 21.609375 28.484375 21.6875 28.0625 21.6875 C 27.636719 21.6875 27.230469 21.609375 26.839844 21.445312 C 26.449219 21.285156 26.105469 21.054688 25.808594 20.757812 C 25.507812 20.457031 25.277344 20.113281 25.117188 19.722656 C 24.957031 19.332031 24.875 18.925781 24.875 18.503906 C 24.875 18.082031 24.957031 17.675781 25.117188 17.285156 C 25.277344 16.894531 25.507812 16.550781 25.808594 16.25 C 26.105469 15.953125 26.449219 15.722656 26.839844 15.558594 C 27.230469 15.398438 27.636719 15.316406 28.0625 15.316406 C 28.484375 15.316406 28.890625 15.398438 29.28125 15.558594 C 29.671875 15.722656 30.015625 15.953125 30.3125 16.25 C 30.613281 16.550781 30.84375 16.894531 31.003906 17.285156 C 31.164062 17.675781 31.246094 18.082031 31.246094 18.503906 Z M 31.246094 18.503906 " fill-opacity="1" fill-rule="nonzero"/></g></svg>