<svg xmlns="http://www.w3.org/2000/svg" xmlns:xlink="http://www.w3.org/1999/xlink" width="50" zoomAndPan="magnify" viewBox="0 0 37.5 37.499999" height="50" preserveAspectRatio="xMidYMid meet" version="1.0"><defs><clipPath id="5ff2aed3cd"><path d="M 4.109375 4.109375 L 32.972656 4.109375 L 32.972656 32.972656 L 4.109375 32.972656 Z M 4.109375 4.109375 " clip-rule="nonzero"/></clipPath></defs><g clip-path="url(#5ff2aed3cd)"><path fill="#000000" d="M 32.972656 18.539062 C 32.972656 19.488281 32.878906 20.425781 32.695312 21.355469 C 32.511719 22.285156 32.238281 23.1875 31.875 24.0625 C 31.511719 24.9375 31.066406 25.769531 30.539062 26.558594 C 30.015625 27.347656 29.414062 28.074219 28.746094 28.746094 C 28.074219 29.414062 27.347656 30.015625 26.558594 30.539062 C 25.769531 31.066406 24.9375 31.511719 24.0625 31.875 C 23.1875 32.238281 22.285156 32.511719 21.355469 32.695312 C 20.425781 32.878906 19.488281 32.972656 18.539062 32.972656 C 17.59375 32.972656 16.652344 32.878906 15.726562 32.695312 C 14.796875 32.511719 13.894531 32.238281 13.015625 31.875 C 12.140625 31.511719 11.308594 31.066406 10.523438 30.539062 C 9.734375 30.015625 9.003906 29.414062 8.335938 28.746094 C 7.664062 28.074219 7.066406 27.347656 6.539062 26.558594 C 6.011719 25.769531 5.570312 24.9375 5.207031 24.0625 C 4.84375 23.1875 4.570312 22.285156 4.386719 21.355469 C 4.199219 20.425781 4.109375 19.488281 4.109375 18.539062 C 4.109375 17.59375 4.199219 16.652344 4.386719 15.726562 C 4.570312 14.796875 4.84375 13.894531 5.207031 13.015625 C 5.570312 12.140625 6.011719 11.308594 6.539062 10.523438 C 7.066406 9.734375 7.664062 9.003906 8.335938 8.335938 C 9.003906 7.664062 9.734375 7.066406 10.523438 6.539062 C 11.308594 6.011719 12.140625 5.570312 13.015625 5.207031 C 13.894531 4.84375 14.796875 4.570312 15.726562 4.386719 C 16.652344 4.199219 17.59375 4.109375 18.539062 4.109375 C 19.488281 4.109375 20.425781 4.199219 21.355469 4.386719 C 22.285156 4.570312 23.1875 4.84375 24.0625 5.207031 C 24.9375 5.570312 25.769531 6.011719 26.558594 6.539062 C 27.347656 7.066406 28.074219 7.664062 28.746094 8.335938 C 29.414062 9.003906 30.015625 9.734375 30.539062 10.523438 C 31.066406 11.308594 31.511719 12.140625 31.875 13.015625 C 32.238281 13.894531 32.511719 14.796875 32.695312 15.726562 C 32.878906 16.652344 32.972656 17.59375 32.972656 18.539062 Z M 32.972656 18.539062 " fill-opacity="1" fill-rule="nonzero"/></g><path fill="#ffffff" d="M 17.535156 19.445312 C 15.148438 17.164062 15.519531 16.089844 15.519531 16.089844 C 16.492188 15.148438 16.359375 13.910156 16.359375 13.910156 C 15.855469 13.238281 15.351562 12.566406 14.847656 11.894531 C 14.847656 11.894531 14.175781 10.785156 13.136719 11.390625 C 10.351562 13.035156 11.222656 15.855469 11.222656 15.855469 C 11.222656 15.890625 11.996094 18.273438 15.519531 21.5625 C 19.042969 24.882812 21.59375 25.757812 21.59375 25.757812 C 21.59375 25.757812 24.480469 26.695312 25.855469 24.042969 C 26.359375 23.039062 25.21875 22.265625 25.21875 22.265625 C 24.515625 21.695312 23.808594 21.160156 23.105469 20.621094 C 23.105469 20.621094 21.828125 20.417969 20.957031 21.394531 C 20.957031 21.425781 19.882812 21.730469 17.535156 19.445312 Z M 17.535156 19.445312 " fill-opacity="1" fill-rule="nonzero"/></svg>